<svg xmlns="http://www.w3.org/2000/svg" width="24.02" height="24" viewBox="0 0 24.02 24">
  <g id="kisspng-broom-computer-icons-monochrome-cleaning-dividing-line-5ac7b91d73c648" opacity="1.0">
    <path id="Caminho_22673" data-name="Caminho 22673" d="M820.317-1441.665a1.263,1.263,0,0,0-.569.31c-.108.1-.557.723-2.334,3.228-1.21,1.7-2.2,3.106-2.212,3.114s-.3-.148-.658-.348a4.222,4.222,0,0,0-1.092-.527,1.536,1.536,0,0,0-.516-.05,1.51,1.51,0,0,0-.519.051,2.432,2.432,0,0,0-.662.3,6.113,6.113,0,0,0-.976,1.006l-.578.656.049.03c.19.118,9.788,5.534,9.793,5.528s.542-1.735.578-1.885a2.079,2.079,0,0,0-.03-1.035,2.109,2.109,0,0,0-.751-1.088c-.078-.059-.356-.224-.618-.369s-.485-.274-.5-.287.257-.67,1.5-3.512c.837-1.919,1.539-3.54,1.558-3.6a1.413,1.413,0,0,0-.019-.706,1.252,1.252,0,0,0-.793-.788A1.513,1.513,0,0,0,820.317-1441.665Z" transform="translate(-797.792 1441.687)" fill="#6b2a87"/>
    <path id="Caminho_22674" data-name="Caminho 22674" d="M158.8-1231.381a1.006,1.006,0,0,0-.847,1.225.923.923,0,0,0,.264.46.93.93,0,0,0,.715.3.917.917,0,0,0,.7-.3.95.95,0,0,0,.293-.7A1,1,0,0,0,158.8-1231.381Z" transform="translate(-157.928 1235.389)" fill="#6b2a87"/>
    <path id="Caminho_22675" data-name="Caminho 22675" d="M213.231-1073.481a2.194,2.194,0,0,0-.886.341,2.506,2.506,0,0,0-.512.512,2.515,2.515,0,0,0-.289.63,1.582,1.582,0,0,0-.044.5,1.58,1.58,0,0,0,.044.5,2.034,2.034,0,0,0,1.24,1.372,1.674,1.674,0,0,0,.713.118,1.738,1.738,0,0,0,.875-.2,1.978,1.978,0,0,0,1.084-1.467,2,2,0,0,0-1.571-2.283A2.448,2.448,0,0,0,213.231-1073.481Z" transform="translate(-210.481 1080.497)" fill="#6b2a87"/>
    <path id="Caminho_22676" data-name="Caminho 22676" d="M170.481-939.633c-.093.1-.316.3-.491.466a18,18,0,0,1-8.483,4.324,13.662,13.662,0,0,1-1.72.249.272.272,0,0,0-.108.013,1.158,1.158,0,0,0,.23.158l2.439,1.474a15.706,15.706,0,0,0,2.311,1.343c.244.03.993.076,1.493.093a11.728,11.728,0,0,0,1.588-.048l.217-.029c.034,0-1.029.683-1.393.894-.152.089-.278.166-.278.171s.6.375,1.328.822l1.33.812.188-.019a14.053,14.053,0,0,0,2.973-.711,18.247,18.247,0,0,0,3.055-1.419,1.756,1.756,0,0,1,.167-.093,3.254,3.254,0,0,1-.263.512,22.271,22.271,0,0,1-2.477,3.129c-.124.135-.259.283-.3.329l-.074.082.084.036c.044.019.9.413,1.9.875a14.061,14.061,0,0,0,1.845.816,9.091,9.091,0,0,0,.7-.632,20.6,20.6,0,0,0,4.413-7.543c.091-.259.1-.314.084-.335-.038-.034-10.52-5.933-10.554-5.941A.787.787,0,0,0,170.481-939.633Z" transform="translate(-159.646 949.35)" fill="#6b2a87"/>
  </g>
</svg>
