<svg xmlns="http://www.w3.org/2000/svg" width="91.829" height="40.817" viewBox="0 0 91.829 40.817">
  <g id="Grupo_4281" data-name="Grupo 4281" transform="translate(-179.5 -289.599)">
    <g id="Grupo_4280" data-name="Grupo 4280" transform="translate(179.5 289.599)">
      <g id="Grupo_4260" data-name="Grupo 4260" transform="translate(30.604 0.069)">
        <g id="Grupo_4258" data-name="Grupo 4258">
          <path id="Caminho_22713" data-name="Caminho 22713" d="M270.1,307.591a2.559,2.559,0,0,1-2.551,2.551h-25.51a2.559,2.559,0,0,1-2.551-2.551V292.285a2.559,2.559,0,0,1,2.551-2.551h25.51a2.559,2.559,0,0,1,2.551,2.551Z" transform="translate(-239.483 -289.734)" fill="#5ec1ec"/>
          <path id="Caminho_22714" data-name="Caminho 22714" d="M270.066,291.2a2.543,2.543,0,0,1,.749,1.8v15.306a2.559,2.559,0,0,1-2.551,2.551h-25.51a2.541,2.541,0,0,1-1.8-.749Z" transform="translate(-240.202 -290.454)" fill="#5bbbe6"/>
          <g id="Grupo_4256" data-name="Grupo 4256" transform="translate(5.54 7.961)">
            <path id="Caminho_22715" data-name="Caminho 22715" d="M253.758,310.092l-.233-.888h-1.538l-.24.888h-1.406l1.545-4.754h1.707l1.564,4.754Zm-.5-1.937-.2-.777c-.048-.172-.105-.4-.173-.67s-.113-.471-.135-.589c-.019.11-.058.291-.115.544s-.184.751-.381,1.493Z" transform="translate(-250.341 -305.338)" fill="#fff"/>
            <path id="Caminho_22716" data-name="Caminho 22716" d="M262.847,310.11l-.968-3.411h-.029q.068.871.068,1.354v2.056h-1.133v-4.735h1.7l.988,3.362h.026l.968-3.362h1.707v4.735H265v-2.076c0-.108,0-.227.005-.359s.018-.455.044-.968h-.029l-.956,3.4Z" transform="translate(-255.456 -305.356)" fill="#fff"/>
            <path id="Caminho_22717" data-name="Caminho 22717" d="M275.9,310.11h-2.811v-4.735H275.9V306.4h-1.533v.745h1.419v1.027h-1.419v.894H275.9Z" transform="translate(-261.484 -305.356)" fill="#fff"/>
            <path id="Caminho_22718" data-name="Caminho 22718" d="M284.013,310.11h-1.48l-.924-1.48-.913,1.48h-1.448l1.57-2.423-1.477-2.313h1.419l.855,1.464.822-1.464H283.9l-1.5,2.413Z" transform="translate(-264.5 -305.356)" fill="#fff"/>
          </g>
          <g id="Grupo_4257" data-name="Grupo 4257" transform="translate(5.54 7.961)">
            <path id="Caminho_22719" data-name="Caminho 22719" d="M253.758,310.092l-.233-.888h-1.538l-.24.888h-1.406l1.545-4.754h1.707l1.564,4.754Zm-.5-1.937-.2-.777c-.048-.172-.105-.4-.173-.67s-.113-.471-.135-.589c-.019.11-.058.291-.115.544s-.184.751-.381,1.493Z" transform="translate(-250.341 -305.338)" fill="#fff"/>
            <path id="Caminho_22720" data-name="Caminho 22720" d="M262.847,310.11l-.968-3.411h-.029q.068.871.068,1.354v2.056h-1.133v-4.735h1.7l.988,3.362h.026l.968-3.362h1.707v4.735H265v-2.076c0-.108,0-.227.005-.359s.018-.455.044-.968h-.029l-.956,3.4Z" transform="translate(-255.456 -305.356)" fill="#fff"/>
            <path id="Caminho_22721" data-name="Caminho 22721" d="M275.9,310.11h-2.811v-4.735H275.9V306.4h-1.533v.745h1.419v1.027h-1.419v.894H275.9Z" transform="translate(-261.484 -305.356)" fill="#fff"/>
            <path id="Caminho_22722" data-name="Caminho 22722" d="M284.013,310.11h-1.48l-.924-1.48-.913,1.48h-1.448l1.57-2.423-1.477-2.313h1.419l.855,1.464.822-1.464H283.9l-1.5,2.413Z" transform="translate(-264.5 -305.356)" fill="#fff"/>
          </g>
          <path id="Caminho_22723" data-name="Caminho 22723" d="M269.483,289.734" transform="translate(-254.177 -289.734)" fill="#56b1d9"/>
        </g>
        <g id="Grupo_4259" data-name="Grupo 4259">
          <path id="Caminho_22724" data-name="Caminho 22724" d="M267.545,290.244a2.043,2.043,0,0,1,2.041,2.041v15.306a2.043,2.043,0,0,1-2.041,2.041h-25.51a2.043,2.043,0,0,1-2.041-2.041V292.285a2.043,2.043,0,0,1,2.041-2.041h25.51m0-.51h-25.51a2.559,2.559,0,0,0-2.551,2.551v15.306a2.559,2.559,0,0,0,2.551,2.551h25.51a2.559,2.559,0,0,0,2.551-2.551V292.285a2.559,2.559,0,0,0-2.551-2.551Z" transform="translate(-239.483 -289.734)" fill="#9bcee0"/>
        </g>
      </g>
      <g id="Grupo_4263" data-name="Grupo 4263">
        <path id="Caminho_22725" data-name="Caminho 22725" d="M210.113,307.456a2.559,2.559,0,0,1-2.551,2.551h-25.51a2.559,2.559,0,0,1-2.551-2.551V292.15a2.559,2.559,0,0,1,2.551-2.551h25.51a2.559,2.559,0,0,1,2.551,2.551Z" transform="translate(-179.5 -289.599)" fill="#5565af"/>
        <path id="Caminho_22726" data-name="Caminho 22726" d="M210.083,291.068a2.543,2.543,0,0,1,.749,1.8v15.306a2.559,2.559,0,0,1-2.551,2.551h-25.51a2.541,2.541,0,0,1-1.8-.749Z" transform="translate(-180.219 -290.319)" fill="#fff" opacity="0.04" style="isolation: isolate"/>
        <path id="Caminho_22727" data-name="Caminho 22727" d="M209.5,289.6" transform="translate(-194.194 -289.599)" fill="#56b1d9"/>
        <g id="Grupo_4261" data-name="Grupo 4261" transform="translate(6.378 5.102)">
          <path id="Caminho_22728" data-name="Caminho 22728" d="M200.929,301.334a5.1,5.1,0,1,0,0,6.734,5.082,5.082,0,0,1,0-6.734Z" transform="translate(-192 -299.599)" fill="#ea564b"/>
          <path id="Caminho_22729" data-name="Caminho 22729" d="M208.276,303a5.082,5.082,0,0,0,0,6.734,5.082,5.082,0,0,0,0-6.734Z" transform="translate(-199.347 -301.264)" fill="#ea564b"/>
        </g>
        <path id="Caminho_22730" data-name="Caminho 22730" d="M212.127,299.6a5.087,5.087,0,0,0-3.827,1.735,5.17,5.17,0,0,0-.584.816h1.167a5.113,5.113,0,0,1,.444,1.02h-2.063a5.052,5.052,0,0,0-.214,1.02h2.489a4.937,4.937,0,0,1,.035.51,5.1,5.1,0,0,1-.027.51h-2.5a5.052,5.052,0,0,0,.214,1.02h2.069a5.113,5.113,0,0,1-.452,1.02h-1.166a5.182,5.182,0,0,0,.584.816,5.1,5.1,0,1,0,3.827-8.469Z" transform="translate(-192.994 -294.497)" fill="#e9d419"/>
        <g id="Grupo_4262" data-name="Grupo 4262">
          <path id="Caminho_22731" data-name="Caminho 22731" d="M207.562,290.109a2.043,2.043,0,0,1,2.041,2.041v15.306a2.043,2.043,0,0,1-2.041,2.041h-25.51a2.043,2.043,0,0,1-2.041-2.041V292.15a2.043,2.043,0,0,1,2.041-2.041h25.51m0-.51h-25.51a2.559,2.559,0,0,0-2.551,2.551v15.306a2.559,2.559,0,0,0,2.551,2.551h25.51a2.559,2.559,0,0,0,2.551-2.551V292.15a2.559,2.559,0,0,0-2.551-2.551Z" transform="translate(-179.5 -289.599)" fill="#7684b7"/>
        </g>
      </g>
      <g id="Grupo_4267" data-name="Grupo 4267" transform="translate(30.604 20.408)">
        <path id="Caminho_22732" data-name="Caminho 22732" d="M270.1,347.456a2.559,2.559,0,0,1-2.551,2.551h-25.51a2.559,2.559,0,0,1-2.551-2.551V332.15a2.559,2.559,0,0,1,2.551-2.551h25.51a2.559,2.559,0,0,1,2.551,2.551Z" transform="translate(-239.483 -329.599)" fill="#f3f4f4"/>
        <g id="Grupo_4266" data-name="Grupo 4266">
          <path id="Caminho_22733" data-name="Caminho 22733" d="M269.483,329.6" transform="translate(-254.177 -329.599)" fill="#fff"/>
          <g id="Grupo_4264" data-name="Grupo 4264" transform="translate(4.592 5.102)">
            <path id="Caminho_22734" data-name="Caminho 22734" d="M252.565,349.8h-4.082V342.15c0-1.409,1.652-2.551,3.061-2.551h3.061v7.653C254.606,348.661,253.974,349.8,252.565,349.8Z" transform="translate(-248.483 -339.599)" fill="#5565af"/>
            <path id="Caminho_22735" data-name="Caminho 22735" d="M266.565,349.8h-4.082V342.15c0-1.409,1.652-2.551,3.061-2.551h3.061v7.653C268.605,348.661,267.974,349.8,266.565,349.8Z" transform="translate(-255.34 -339.599)" fill="#ea564b"/>
            <path id="Caminho_22736" data-name="Caminho 22736" d="M280.565,349.8h-4.082V342.15c0-1.409,1.652-2.551,3.061-2.551h3.061v7.653C282.606,348.661,281.974,349.8,280.565,349.8Z" transform="translate(-262.197 -339.599)" fill="#99cd76"/>
          </g>
          <path id="Caminho_22737" data-name="Caminho 22737" d="M270.066,331.068a2.543,2.543,0,0,1,.749,1.8v15.306a2.559,2.559,0,0,1-2.551,2.551h-25.51a2.541,2.541,0,0,1-1.8-.75Z" transform="translate(-240.202 -330.319)" fill="#fff" opacity="0.08" style="isolation: isolate"/>
          <g id="Grupo_4265" data-name="Grupo 4265">
            <path id="Caminho_22738" data-name="Caminho 22738" d="M267.545,330.109a2.043,2.043,0,0,1,2.041,2.041v15.306a2.043,2.043,0,0,1-2.041,2.041h-25.51a2.043,2.043,0,0,1-2.041-2.041V332.15a2.043,2.043,0,0,1,2.041-2.041h25.51m0-.51h-25.51a2.559,2.559,0,0,0-2.551,2.551v15.306a2.559,2.559,0,0,0,2.551,2.551h25.51a2.559,2.559,0,0,0,2.551-2.551V332.15a2.559,2.559,0,0,0-2.551-2.551Z" transform="translate(-239.483 -329.599)" fill="#f8f8f9"/>
          </g>
        </g>
      </g>
      <g id="Grupo_4273" data-name="Grupo 4273" transform="translate(61.216 20.408)">
        <path id="Caminho_22739" data-name="Caminho 22739" d="M330.1,347.456a2.559,2.559,0,0,1-2.551,2.551h-25.51a2.559,2.559,0,0,1-2.551-2.551V332.15a2.559,2.559,0,0,1,2.551-2.551h25.51a2.559,2.559,0,0,1,2.551,2.551Z" transform="translate(-299.483 -329.599)" fill="#f3f4f4"/>
        <g id="Grupo_4272" data-name="Grupo 4272">
          <g id="Grupo_4270" data-name="Grupo 4270" transform="translate(8.589 5.102)">
            <circle id="Elipse_662" data-name="Elipse 662" cx="5.102" cy="5.102" r="5.102" fill="#009fda"/>
            <path id="Caminho_22740" data-name="Caminho 22740" d="M325.483,339.6a5.1,5.1,0,0,1,0,10.2Z" transform="translate(-320.806 -339.599)" fill="#009fda"/>
            <path id="Caminho_22741" data-name="Caminho 22741" d="M325.483,349.8V339.6h3.657a5.1,5.1,0,0,1,0,10.2Z" transform="translate(-320.806 -339.599)" fill="#009fda"/>
            <circle id="Elipse_663" data-name="Elipse 663" cx="4.815" cy="4.815" r="4.815" transform="translate(0.287 0.287)" fill="#f3f4f4"/>
            <g id="Grupo_4268" data-name="Grupo 4268" transform="translate(5.187 2.24)">
              <path id="Caminho_22742" data-name="Caminho 22742" d="M328.747,346.852a3.284,3.284,0,0,0-2.264-2.862v5.724A3.283,3.283,0,0,0,328.747,346.852Z" transform="translate(-326.483 -343.99)" fill="#009fda"/>
            </g>
            <g id="Grupo_4269" data-name="Grupo 4269" transform="translate(1.392 2.24)">
              <path id="Caminho_22743" data-name="Caminho 22743" d="M319.045,346.851a3.284,3.284,0,0,0,2.264,2.862v-5.724A3.285,3.285,0,0,0,319.045,346.851Z" transform="translate(-319.045 -343.989)" fill="#009fda"/>
            </g>
          </g>
          <path id="Caminho_22744" data-name="Caminho 22744" d="M330.066,331.068a2.543,2.543,0,0,1,.75,1.8v15.306a2.559,2.559,0,0,1-2.551,2.551h-25.51a2.541,2.541,0,0,1-1.8-.75Z" transform="translate(-300.203 -330.319)" fill="#fff" opacity="0.08" style="isolation: isolate"/>
          <g id="Grupo_4271" data-name="Grupo 4271">
            <path id="Caminho_22745" data-name="Caminho 22745" d="M327.545,330.109a2.043,2.043,0,0,1,2.041,2.041v15.306a2.043,2.043,0,0,1-2.041,2.041h-25.51a2.043,2.043,0,0,1-2.041-2.041V332.15a2.043,2.043,0,0,1,2.041-2.041h25.51m0-.51h-25.51a2.559,2.559,0,0,0-2.551,2.551v15.306a2.559,2.559,0,0,0,2.551,2.551h25.51a2.559,2.559,0,0,0,2.551-2.551V332.15a2.559,2.559,0,0,0-2.551-2.551Z" transform="translate(-299.483 -329.599)" fill="#f8f8f9"/>
          </g>
        </g>
      </g>
      <g id="Grupo_4276" data-name="Grupo 4276" transform="translate(61.216 0.068)">
        <path id="Caminho_22746" data-name="Caminho 22746" d="M330.1,307.589a2.559,2.559,0,0,1-2.551,2.551h-25.51a2.559,2.559,0,0,1-2.551-2.551V292.283a2.559,2.559,0,0,1,2.551-2.551h25.51a2.559,2.559,0,0,1,2.551,2.551Z" transform="translate(-299.483 -289.732)" fill="#fff9f0"/>
        <g id="Grupo_4274" data-name="Grupo 4274" transform="translate(5.145 8.607)">
          <path id="Caminho_22747" data-name="Caminho 22747" d="M312.145,308.213a1.531,1.531,0,0,1-.436,1.174,1.784,1.784,0,0,1-1.261.408h-.88v-3.1h.975a1.639,1.639,0,0,1,1.18.4A1.472,1.472,0,0,1,312.145,308.213Zm-.684.017q0-1-.883-1h-.351v2.021h.283Q311.461,309.253,311.461,308.231Z" transform="translate(-309.568 -306.646)" fill="#414042"/>
          <path id="Caminho_22748" data-name="Caminho 22748" d="M315.709,309.8v-3.1h.658v3.1Z" transform="translate(-312.576 -306.646)" fill="#414042"/>
          <path id="Caminho_22749" data-name="Caminho 22749" d="M320.181,308.892a.8.8,0,0,1-.3.663,1.316,1.316,0,0,1-.842.243,1.99,1.99,0,0,1-.88-.187V309a3.677,3.677,0,0,0,.532.2,1.593,1.593,0,0,0,.4.057.571.571,0,0,0,.332-.083.287.287,0,0,0,.116-.246.267.267,0,0,0-.052-.162.536.536,0,0,0-.15-.137,3.91,3.91,0,0,0-.4-.21,1.967,1.967,0,0,1-.427-.257.941.941,0,0,1-.227-.287.823.823,0,0,1-.085-.383.8.8,0,0,1,.279-.647,1.159,1.159,0,0,1,.772-.236,1.822,1.822,0,0,1,.462.057,3.171,3.171,0,0,1,.46.161l-.212.512a3.011,3.011,0,0,0-.412-.142,1.345,1.345,0,0,0-.319-.04.418.418,0,0,0-.287.087.286.286,0,0,0-.1.227.282.282,0,0,0,.04.152.442.442,0,0,0,.129.125,4.1,4.1,0,0,0,.417.218,1.673,1.673,0,0,1,.6.417A.806.806,0,0,1,320.181,308.892Z" transform="translate(-313.774 -306.604)" fill="#414042"/>
          <path id="Caminho_22750" data-name="Caminho 22750" d="M324.413,307.15a.673.673,0,0,0-.575.279,1.3,1.3,0,0,0-.2.779q0,1.038.779,1.038a2.435,2.435,0,0,0,.792-.163v.552a2.194,2.194,0,0,1-.854.159,1.3,1.3,0,0,1-1.036-.412,1.738,1.738,0,0,1-.359-1.18,1.918,1.918,0,0,1,.177-.848,1.266,1.266,0,0,1,.506-.559,1.5,1.5,0,0,1,.775-.194,2.085,2.085,0,0,1,.909.219l-.212.535a3.611,3.611,0,0,0-.351-.144A1.041,1.041,0,0,0,324.413,307.15Z" transform="translate(-316.125 -306.602)" fill="#414042"/>
          <path id="Caminho_22751" data-name="Caminho 22751" d="M335.618,306.691h.665l-1.055,3.1h-.718l-1.053-3.1h.665l.584,1.847c.032.11.067.236.1.382s.056.245.065.3a5.413,5.413,0,0,1,.159-.684Z" transform="translate(-321.269 -306.646)" fill="#414042"/>
          <path id="Caminho_22752" data-name="Caminho 22752" d="M341.548,309.8H339.76v-3.1h1.788v.54h-1.13v.682h1.052v.539h-1.052v.8h1.13Z" transform="translate(-324.356 -306.646)" fill="#414042"/>
          <path id="Caminho_22753" data-name="Caminho 22753" d="M345.193,308.6V309.8h-.658v-3.1h.9a1.547,1.547,0,0,1,.937.231.919.919,0,0,1,.153,1.187,1,1,0,0,1-.427.335q.7,1.045.913,1.352h-.731l-.741-1.191Zm0-.535h.213a.817.817,0,0,0,.461-.1.375.375,0,0,0,.148-.328.341.341,0,0,0-.152-.314.915.915,0,0,0-.47-.093h-.2v.839Z" transform="translate(-326.694 -306.646)" fill="#414042"/>
          <circle id="Elipse_664" data-name="Elipse 664" cx="1.553" cy="1.553" r="1.553" transform="translate(9.152 0.045)" fill="#e6a124"/>
        </g>
        <path id="Caminho_22754" data-name="Caminho 22754" d="M335.036,317.232v3.827a2.523,2.523,0,0,1-.2.99,2.574,2.574,0,0,1-1.359,1.359,2.529,2.529,0,0,1-.99.2H309.569Z" transform="translate(-304.423 -303.201)" fill="#e6a124"/>
        <path id="Caminho_22755" data-name="Caminho 22755" d="M330.066,291.2a2.543,2.543,0,0,1,.75,1.8v15.306a2.559,2.559,0,0,1-2.551,2.551h-25.51a2.541,2.541,0,0,1-1.8-.75Z" transform="translate(-300.203 -290.452)" fill="#fff" opacity="0.08" style="isolation: isolate"/>
        <g id="Grupo_4275" data-name="Grupo 4275">
          <path id="Caminho_22756" data-name="Caminho 22756" d="M327.545,290.242a2.043,2.043,0,0,1,2.041,2.041v15.306a2.043,2.043,0,0,1-2.041,2.041h-25.51a2.043,2.043,0,0,1-2.041-2.041V292.283a2.043,2.043,0,0,1,2.041-2.041h25.51m0-.51h-25.51a2.559,2.559,0,0,0-2.551,2.551v15.306a2.559,2.559,0,0,0,2.551,2.551h25.51a2.559,2.559,0,0,0,2.551-2.551V292.283a2.559,2.559,0,0,0-2.551-2.551Z" transform="translate(-299.483 -289.732)" fill="#f7f5f2"/>
        </g>
      </g>
      <g id="Grupo_4279" data-name="Grupo 4279" transform="translate(0 20.033)">
        <path id="Caminho_22757" data-name="Caminho 22757" d="M210.113,346.721a2.559,2.559,0,0,1-2.551,2.551h-25.51a2.559,2.559,0,0,1-2.551-2.551V331.415a2.559,2.559,0,0,1,2.551-2.551h25.51a2.559,2.559,0,0,1,2.551,2.551Z" transform="translate(-179.5 -328.864)" fill="#f3f4f4"/>
        <path id="Caminho_22758" data-name="Caminho 22758" d="M180.5,333.966v-2.551a2.559,2.559,0,0,1,2.551-2.551h24.49a2.559,2.559,0,0,1,2.551,2.551v2.551" transform="translate(-179.99 -328.864)" fill="#5565af"/>
        <path id="Caminho_22759" data-name="Caminho 22759" d="M210.092,358.864v2.551c0,1.4-1.148,2.041-2.551,2.041h-24.49c-1.4,0-2.551-.638-2.551-2.041v-2.551" transform="translate(-179.99 -343.558)" fill="#e6a124"/>
        <g id="Grupo_4277" data-name="Grupo 4277" transform="translate(7.472 7.208)">
          <path id="Caminho_22760" data-name="Caminho 22760" d="M195.544,347.793a11.485,11.485,0,0,1,.438-1.128l1.722-3.508h1.26l-2.982,5.828h-1.331l-.506-5.828h1.176l.2,3.508c.01.119.016.3.016.53q-.009.411-.024.6Z" transform="translate(-194.145 -343.073)" fill="#5565af"/>
          <path id="Caminho_22761" data-name="Caminho 22761" d="M202.559,348.985l1.244-5.828h1.216l-1.244,5.828Z" transform="translate(-198.266 -343.073)" fill="#5565af"/>
          <path id="Caminho_22762" data-name="Caminho 22762" d="M211.221,347.182a1.616,1.616,0,0,1-.59,1.317,2.445,2.445,0,0,1-1.6.484,2.515,2.515,0,0,1-1.419-.359v-1.092a2.951,2.951,0,0,0,1.427.431,1.231,1.231,0,0,0,.7-.169.53.53,0,0,0,.251-.464.787.787,0,0,0-.054-.3.882.882,0,0,0-.154-.241,4.314,4.314,0,0,0-.494-.407,2.644,2.644,0,0,1-.773-.782,1.631,1.631,0,0,1-.223-.833,1.724,1.724,0,0,1,.247-.919,1.665,1.665,0,0,1,.7-.63,2.343,2.343,0,0,1,1.051-.225,3.236,3.236,0,0,1,1.583.394l-.435.929a2.7,2.7,0,0,0-1.148-.295.8.8,0,0,0-.542.18.59.59,0,0,0-.211.474.7.7,0,0,0,.132.424,2.4,2.4,0,0,0,.59.48,2.369,2.369,0,0,1,.721.7A1.674,1.674,0,0,1,211.221,347.182Z" transform="translate(-200.742 -342.992)" fill="#5565af"/>
          <path id="Caminho_22763" data-name="Caminho 22763" d="M218.655,347.574H216.77l-.686,1.387h-1.276l3.053-5.852h1.487l.586,5.852h-1.184Zm-.06-1.036-.1-1.395q-.041-.522-.04-1.009v-.143q-.176.478-.435,1.012l-.749,1.535Z" transform="translate(-204.266 -343.05)" fill="#5565af"/>
        </g>
        <path id="Caminho_22764" data-name="Caminho 22764" d="M209.5,328.864" transform="translate(-194.194 -328.864)" fill="#fff"/>
        <path id="Caminho_22765" data-name="Caminho 22765" d="M210.083,330.333a2.543,2.543,0,0,1,.749,1.8v15.306a2.559,2.559,0,0,1-2.551,2.551h-25.51a2.541,2.541,0,0,1-1.8-.75Z" transform="translate(-180.219 -329.584)" fill="#fff" opacity="0.04" style="isolation: isolate"/>
        <g id="Grupo_4278" data-name="Grupo 4278">
          <path id="Caminho_22766" data-name="Caminho 22766" d="M207.562,329.374a2.043,2.043,0,0,1,2.041,2.041v15.306a2.043,2.043,0,0,1-2.041,2.041h-25.51a2.043,2.043,0,0,1-2.041-2.041V331.415a2.043,2.043,0,0,1,2.041-2.041h25.51m0-.51h-25.51a2.559,2.559,0,0,0-2.551,2.551v15.306a2.559,2.559,0,0,0,2.551,2.551h25.51a2.559,2.559,0,0,0,2.551-2.551V331.415a2.559,2.559,0,0,0-2.551-2.551Z" transform="translate(-179.5 -328.864)" fill="#f8f8f9"/>
        </g>
      </g>
    </g>
  </g>
</svg>
