<svg xmlns="http://www.w3.org/2000/svg" width="21" height="21" viewBox="0 0 21 21">
  <g id="Grupo_4296" data-name="Grupo 4296" transform="translate(-337 -365)">
    <circle id="Elipse_666" data-name="Elipse 666" cx="10.5" cy="10.5" r="10.5" transform="translate(337 365)" fill="#6b2a87" opacity="0.3"/>
    <path id="contact_support_FILL0_wght400_GRAD0_opsz48" d="M14.717,21.654,14.5,19.227h-.883A7.336,7.336,0,0,1,8.229,17,7.336,7.336,0,0,1,6,11.613,7.318,7.318,0,0,1,8.24,6.229,7.4,7.4,0,0,1,13.657,4a7.4,7.4,0,0,1,2.9.563,7.053,7.053,0,0,1,2.328,1.578,7.359,7.359,0,0,1,1.556,2.394,7.9,7.9,0,0,1,.563,3.012,10.236,10.236,0,0,1-.43,2.913,11.47,11.47,0,0,1-1.247,2.781,12.5,12.5,0,0,1-1.986,2.45A13.439,13.439,0,0,1,14.717,21.654Zm1.1-2.383a11.12,11.12,0,0,0,2.836-3.586,9.217,9.217,0,0,0,1.026-4.138,6.128,6.128,0,0,0-1.71-4.48,5.79,5.79,0,0,0-4.314-1.743A6.111,6.111,0,0,0,9.167,7.167a6.059,6.059,0,0,0-1.843,4.447A6.059,6.059,0,0,0,9.167,16.06,6.059,6.059,0,0,0,13.613,17.9H15.82Zm-2.163-2.538a.829.829,0,1,0-.6-.243A.81.81,0,0,0,13.657,16.733Zm-.6-3h1.1a1.99,1.99,0,0,1,.188-.916,4.4,4.4,0,0,1,.783-.96,4.3,4.3,0,0,0,.839-1.092,2.4,2.4,0,0,0,.243-1.07,2.155,2.155,0,0,0-.673-1.633,2.5,2.5,0,0,0-1.8-.64,2.9,2.9,0,0,0-2.736,1.81l1.015.419A1.806,1.806,0,0,1,12.7,8.8a1.78,1.78,0,0,1,.982-.276,1.548,1.548,0,0,1,1.037.32,1.061,1.061,0,0,1,.375.85,1.72,1.72,0,0,1-.243.85,5.756,5.756,0,0,1-.861,1.07,3.932,3.932,0,0,0-.761.993,2.923,2.923,0,0,0-.166,1.125ZM13.5,12.3Z" transform="translate(333.994 363)" fill="#584f6e"/>
  </g>
</svg>
