<svg xmlns="http://www.w3.org/2000/svg" width="17.676" height="22.854" viewBox="0 0 17.676 22.854">
  <g id="Vrstva_169" data-name="Vrstva 169" transform="translate(0.75 0.75)">
    <path id="Caminho_141" data-name="Caminho 141" d="M20.277,23.2l-3.656-2.8a.248.248,0,0,0-.313,0l-3.462,2.966a.248.248,0,0,1-.324,0L8.6,20.4a.226.226,0,0,0-.3,0L4.91,23.181a.259.259,0,0,1-.41-.194V4.267A2.157,2.157,0,0,1,6.657,2.11H18.519a2.157,2.157,0,0,1,2.157,2.157V23.009a.248.248,0,0,1-.4.194Z" transform="translate(-4.5 -2.11)" fill="none" stroke="#6b2a87" stroke-linecap="round" stroke-linejoin="round" stroke-width="1.5"/>
    <line id="Linha_126" data-name="Linha 126" x2="8.627" transform="translate(2.793 4.432)" fill="none" stroke="#6b2a87" stroke-linecap="round" stroke-linejoin="round" stroke-width="1.5"/>
    <line id="Linha_127" data-name="Linha 127" x2="5.392" transform="translate(2.793 8.746)" fill="none" stroke="#6b2a87" stroke-linecap="round" stroke-linejoin="round" stroke-width="1.5"/>
    <line id="Linha_128" data-name="Linha 128" x2="9.705" transform="translate(2.793 13.059)" fill="none" stroke="#6b2a87" stroke-linecap="round" stroke-linejoin="round" stroke-width="1.5"/>
  </g>
</svg>
