<svg xmlns="http://www.w3.org/2000/svg" width="115.44" height="40.817" viewBox="0 0 115.44 40.817">
  <g id="pix-106" transform="translate(0.023 0.001)">
    <path id="Caminho_22684" data-name="Caminho 22684" d="M393.22,88.5V65.088a7.8,7.8,0,0,1,7.8-7.8l6.911.01a7.787,7.787,0,0,1,7.771,7.788v4.981a7.8,7.8,0,0,1-7.8,7.8h-9.768" transform="translate(-345.856 -50.387)" fill="none" stroke="#939598" stroke-linecap="round" stroke-linejoin="round" stroke-width="2"/>
    <path id="Caminho_22685" data-name="Caminho 22685" d="M595.8,57.28h3a3.2,3.2,0,0,1,3.2,3.2V77.965" transform="translate(-524.025 -50.379)" fill="none" stroke="#939598" stroke-linecap="round" stroke-linejoin="round" stroke-width="2"/>
    <path id="Caminho_22686" data-name="Caminho 22686" d="M630.133,4.193l-1.359-1.36a.863.863,0,0,1,0-1.221L630.133.252a.865.865,0,0,1,1.223,0l1.358,1.359a.863.863,0,0,1,0,1.221l-1.364,1.36a.864.864,0,0,1-1.222,0" transform="translate(-552.803)" fill="#32bcad"/>
    <path id="Caminho_22687" data-name="Caminho 22687" d="M695,57.15h2.973a5.766,5.766,0,0,1,4.078,1.687L709,65.791a2.305,2.305,0,0,0,3.262,0l6.929-6.928a5.761,5.761,0,0,1,4.077-1.687h2.417" transform="translate(-611.272 -50.264)" fill="none" stroke="#939598" stroke-linecap="round" stroke-linejoin="round" stroke-width="2"/>
    <path id="Caminho_22688" data-name="Caminho 22688" d="M695,159.673h2.973a5.768,5.768,0,0,0,4.078-1.687L709,151.032a2.308,2.308,0,0,1,3.262,0l6.929,6.929a5.765,5.765,0,0,0,4.077,1.687h2.417" transform="translate(-611.272 -132.24)" fill="none" stroke="#939598" stroke-linecap="round" stroke-linejoin="round" stroke-width="2"/>
    <path id="Caminho_22689" data-name="Caminho 22689" d="M85.947,208.765a5.552,5.552,0,0,1-3.95-1.63l-5.706-5.709a1.085,1.085,0,0,0-1.5,0l-5.725,5.725a5.554,5.554,0,0,1-3.95,1.635H64l7.23,7.23a5.784,5.784,0,0,0,8.171,0l7.245-7.246Z" transform="translate(-56.308 -176.89)" fill="#32bcad"/>
    <path id="Caminho_22690" data-name="Caminho 22690" d="M65.118,32.009a5.553,5.553,0,0,1,3.95,1.635l5.725,5.726a1.062,1.062,0,0,0,1.5,0l5.7-5.7a5.543,5.543,0,0,1,3.95-1.636h.687l-7.245-7.245a5.777,5.777,0,0,0-8.171,0L64,32.009Z" transform="translate(-56.308 -20.311)" fill="#32bcad"/>
    <path id="Caminho_22691" data-name="Caminho 22691" d="M36.318,114.907l-4.378-4.378a.843.843,0,0,1-.311.063H29.639a3.931,3.931,0,0,0-2.763,1.145l-5.7,5.7a2.74,2.74,0,0,1-3.872,0l-5.726-5.723a3.931,3.931,0,0,0-2.763-1.146H6.367a.858.858,0,0,1-.294-.059l-4.406,4.4a5.784,5.784,0,0,0,0,8.171l4.4,4.4a.826.826,0,0,1,.294-.059H8.81a3.932,3.932,0,0,0,2.763-1.146l5.725-5.725a2.806,2.806,0,0,1,3.873,0l5.7,5.7a3.931,3.931,0,0,0,2.763,1.145H31.63a.832.832,0,0,1,.311.063l4.378-4.378a5.777,5.777,0,0,0,0-8.171" transform="translate(0 -97.194)" fill="#32bcad"/>
    <path id="Caminho_22692" data-name="Caminho 22692" d="M432.962,298.042a5.071,5.071,0,0,0-1.071.163v1.427a2.48,2.48,0,0,0,.834.14c.716,0,1.054-.241,1.054-.871,0-.593-.277-.858-.817-.858m-1.312,2.651v-2.823h.2l.021.12a5.649,5.649,0,0,1,1.116-.18,1.1,1.1,0,0,1,.731.212,1.09,1.09,0,0,1,.323.875.992.992,0,0,1-.458.907,1.758,1.758,0,0,1-.83.184,2.989,2.989,0,0,1-.858-.131v.83Z" transform="translate(-379.656 -261.922)" fill="#939598"/>
    <path id="Caminho_22693" data-name="Caminho 22693" d="M456.932,298.071c-.715,0-1.034.224-1.034.854,0,.609.315.883,1.034.883s1.03-.222,1.03-.851c0-.609-.315-.887-1.03-.887m.921,1.738a1.562,1.562,0,0,1-.921.221,1.581,1.581,0,0,1-.923-.221.983.983,0,0,1-.369-.866,1,1,0,0,1,.369-.871,2.037,2.037,0,0,1,1.844,0,.991.991,0,0,1,.368.866,1,1,0,0,1-.368.871" transform="translate(-400.755 -261.96)" fill="#939598"/>
    <path id="Caminho_22694" data-name="Caminho 22694" d="M482.663,300.384l-.8-1.712h-.016l-.786,1.712h-.221L480,298.32h.265l.707,1.733h.017l.769-1.733h.221l.788,1.733h.017l.69-1.733h.261l-.851,2.064Z" transform="translate(-422.179 -262.373)" fill="#939598"/>
    <path id="Caminho_22695" data-name="Caminho 22695" d="M515.069,298.046c-.663,0-.887.3-.928.723H516c-.021-.47-.262-.723-.928-.723m-.009,1.963a1.252,1.252,0,0,1-.859-.229,1.071,1.071,0,0,1-.322-.858,1.054,1.054,0,0,1,.384-.883,1.371,1.371,0,0,1,.8-.209,1.447,1.447,0,0,1,.826.2,1.049,1.049,0,0,1,.355.952h-2.115c.008.425.147.8.948.8a6.233,6.233,0,0,0,1.067-.121v.217a6.306,6.306,0,0,1-1.085.127" transform="translate(-451.977 -261.94)" fill="#939598"/>
    <path id="Caminho_22696" data-name="Caminho 22696" d="M539.3,299.953v-2.064h.2l.02.12a3.629,3.629,0,0,1,1.027-.18h.029v.229h-.058a3.383,3.383,0,0,0-.972.163v1.729Z" transform="translate(-474.334 -261.942)" fill="#939598"/>
    <path id="Caminho_22697" data-name="Caminho 22697" d="M552.789,298.047c-.662,0-.887.3-.928.723h1.856c-.021-.47-.262-.723-.928-.723m-.008,1.963a1.248,1.248,0,0,1-.858-.229,1.071,1.071,0,0,1-.323-.858,1.057,1.057,0,0,1,.384-.883,1.376,1.376,0,0,1,.8-.208,1.446,1.446,0,0,1,.825.2,1.049,1.049,0,0,1,.361.952h-2.123c.008.425.147.8.948.8a6.228,6.228,0,0,0,1.068-.12v.217a6.315,6.315,0,0,1-1.084.126" transform="translate(-485.151 -261.94)" fill="#939598"/>
    <path id="Caminho_22698" data-name="Caminho 22698" d="M577.536,292.272a2.483,2.483,0,0,0-.834-.139c-.716,0-1.054.241-1.054.871,0,.6.278.858.817.858a5.313,5.313,0,0,0,1.071-.16Zm.046,1.762-.022-.12a5.549,5.549,0,0,1-1.116.181.943.943,0,0,1-1.054-1.087.966.966,0,0,1,.458-.9,1.73,1.73,0,0,1,.834-.188,3.156,3.156,0,0,1,.854.13V291.1h.241v2.934Z" transform="translate(-506.075 -256.023)" fill="#939598"/>
    <path id="Caminho_22699" data-name="Caminho 22699" d="M614.972,292.142a5.074,5.074,0,0,0-1.071.163v1.423a2.41,2.41,0,0,0,.834.143c.716,0,1.054-.241,1.054-.871,0-.593-.277-.858-.817-.858m.617,1.765a1.754,1.754,0,0,1-.829.184,2.933,2.933,0,0,1-.924-.155l-.012.1h-.164V291.1h.241v.984a5.825,5.825,0,0,1,1.092-.171,1.1,1.1,0,0,1,.731.212,1.09,1.09,0,0,1,.323.875.992.992,0,0,1-.458.907" transform="translate(-539.733 -256.023)" fill="#939598"/>
    <path id="Caminho_22700" data-name="Caminho 22700" d="M635.734,301.147v-.224c.121.012.229.021.306.021a.623.623,0,0,0,.646-.425l.078-.164-1.085-2.064h.28l.924,1.782h.016l.878-1.782h.275l-1.162,2.318a.841.841,0,0,1-.863.559,2.359,2.359,0,0,1-.3-.021" transform="translate(-559.1 -262.347)" fill="#939598"/>
    <path id="Caminho_22701" data-name="Caminho 22701" d="M672.569,293.842h-.8v.723h.8c.552,0,.76-.062.76-.362,0-.323-.287-.361-.765-.361m-.145-1.167h-.653v.735h.658c.543,0,.76-.065.76-.371,0-.328-.275-.361-.765-.361m1.244,2.154a2.382,2.382,0,0,1-1.3.2H671.14V292.22h1.194a2.269,2.269,0,0,1,1.189.18.592.592,0,0,1,.287.556.61.61,0,0,1-.442.622v.016c.361.082.593.266.593.663a.6.6,0,0,1-.3.569" transform="translate(-590.287 -257.008)" fill="#939598"/>
    <path id="Caminho_22702" data-name="Caminho 22702" d="M701.2,299.122c-.241-.021-.482-.033-.743-.033-.421,0-.569.086-.569.278s.12.277.446.277a4.157,4.157,0,0,0,.866-.12Zm.121.866-.016-.121a4.958,4.958,0,0,1-1.121.181,1.07,1.07,0,0,1-.625-.152.639.639,0,0,1,.12-1.058,1.9,1.9,0,0,1,.774-.111c.216,0,.506.012.747.029v-.037c0-.323-.212-.429-.793-.429-.224,0-.5.012-.76.036v-.417c.29-.024.618-.04.888-.04a1.759,1.759,0,0,1,.964.192.769.769,0,0,1,.282.707v1.222Z" transform="translate(-615.078 -261.977)" fill="#939598"/>
    <path id="Caminho_22703" data-name="Caminho 22703" d="M727.735,299.947v-1.139c0-.376-.192-.511-.535-.511a3.937,3.937,0,0,0-.844.13v1.521h-.576v-2.065h.47l.021.131a4.774,4.774,0,0,1,1.1-.188,1.017,1.017,0,0,1,.707.212.8.8,0,0,1,.224.646v1.263Z" transform="translate(-638.343 -261.936)" fill="#939598"/>
    <path id="Caminho_22704" data-name="Caminho 22704" d="M752.265,300.029a1.169,1.169,0,0,1-.769-.217,1.065,1.065,0,0,1-.327-.875,1.006,1.006,0,0,1,.421-.883,1.639,1.639,0,0,1,.907-.2c.241,0,.47.016.723.04v.442c-.208-.02-.458-.036-.658-.036-.548,0-.806.171-.806.646,0,.445.193.637.642.637a4.9,4.9,0,0,0,.866-.106v.424a5.132,5.132,0,0,1-1.005.131" transform="translate(-660.673 -261.96)" fill="#939598"/>
    <path id="Caminho_22705" data-name="Caminho 22705" d="M772.642,298.283c-.548,0-.789.172-.789.642s.241.67.789.67.781-.168.781-.637-.233-.675-.781-.675m.989,1.529a1.738,1.738,0,0,1-.989.217,1.774,1.774,0,0,1-.993-.217.962.962,0,0,1-.389-.87.972.972,0,0,1,.389-.876,2.385,2.385,0,0,1,1.982,0,.967.967,0,0,1,.384.871.981.981,0,0,1-.384.875" transform="translate(-678.342 -261.96)" fill="#939598"/>
    <path id="Caminho_22706" data-name="Caminho 22706" d="M811.212,294.655a1.556,1.556,0,0,1-1.005-.29,1.443,1.443,0,0,1-.437-1.169,1.373,1.373,0,0,1,.568-1.189,2.148,2.148,0,0,1,1.186-.266c.311,0,.63.021.977.049v.5c-.3-.024-.666-.045-.952-.045-.8,0-1.136.3-1.136.948s.315.952.9.952a6.362,6.362,0,0,0,1.247-.167v.5a6.985,6.985,0,0,1-1.349.176" transform="translate(-712.212 -256.586)" fill="#939598"/>
    <path id="Caminho_22707" data-name="Caminho 22707" d="M837.563,298.191c-.482,0-.663.172-.7.482h1.391c-.017-.335-.213-.482-.69-.482M837.476,300a1.336,1.336,0,0,1-.875-.229,1.093,1.093,0,0,1-.331-.863,1.048,1.048,0,0,1,.389-.871,1.535,1.535,0,0,1,.9-.216,1.589,1.589,0,0,1,.894.208,1.1,1.1,0,0,1,.362,1.017h-1.959c.012.316.18.519.761.519a7.444,7.444,0,0,0,1.1-.106v.4a7.871,7.871,0,0,1-1.244.135" transform="translate(-735.518 -261.933)" fill="#939598"/>
    <path id="Caminho_22708" data-name="Caminho 22708" d="M864.455,299.947v-1.139c0-.376-.192-.511-.535-.511a3.936,3.936,0,0,0-.844.13v1.521H862.5v-2.065h.47l.02.131a4.776,4.776,0,0,1,1.1-.188,1.018,1.018,0,0,1,.707.212.8.8,0,0,1,.224.646v1.263Z" transform="translate(-758.588 -261.936)" fill="#939598"/>
    <path id="Caminho_22709" data-name="Caminho 22709" d="M888.049,295.877a.748.748,0,0,1-.67-.3,1.062,1.062,0,0,1-.152-.624v-.774h-.417v-.429h.417l.061-.625h.509v.625h.814v.429H887.8v.663a.993.993,0,0,0,.057.393.367.367,0,0,0,.377.192,2.565,2.565,0,0,0,.412-.041v.413a3.323,3.323,0,0,1-.6.074" transform="translate(-779.968 -257.808)" fill="#939598"/>
    <path id="Caminho_22710" data-name="Caminho 22710" d="M906.44,299.963V297.9h.47l.02.131a3.59,3.59,0,0,1,1.022-.188.628.628,0,0,1,.073,0v.5h-.2a3.244,3.244,0,0,0-.81.106v1.524Z" transform="translate(-797.233 -261.952)" fill="#939598"/>
    <path id="Caminho_22711" data-name="Caminho 22711" d="M923.335,299.122c-.241-.021-.482-.033-.745-.033-.421,0-.568.086-.568.278s.121.277.445.277a4.173,4.173,0,0,0,.868-.121Zm.12.866-.017-.12a4.949,4.949,0,0,1-1.121.181,1.071,1.071,0,0,1-.625-.152.587.587,0,0,1-.229-.5.579.579,0,0,1,.348-.559,1.889,1.889,0,0,1,.772-.111c.217,0,.508.012.748.029v-.037c0-.323-.213-.429-.793-.429-.225,0-.5.012-.76.036v-.417c.291-.024.617-.04.887-.04a1.759,1.759,0,0,1,.964.192.768.768,0,0,1,.282.707v1.222Z" transform="translate(-810.445 -261.977)" fill="#939598"/>
    <path id="Caminho_22712" data-name="Caminho 22712" d="M947.92,291.1h.577v2.934h-.577Z" transform="translate(-833.714 -256.023)" fill="#939598"/>
  </g>
</svg>
